<svg width="24" height="24" viewBox="0 0 24 24" fill="none" xmlns="http://www.w3.org/2000/svg">
<path d="M8.90998 20.67C8.71998 20.67 8.52998 20.6 8.37998 20.45C8.08998 20.16 8.08998 19.68 8.37998 19.39L14.9 12.87C15.38 12.39 15.38 11.61 14.9 11.13L8.37998 4.60999C8.08998 4.31999 8.08998 3.83999 8.37998 3.54999C8.66998 3.25999 9.14998 3.25999 9.43998 3.54999L15.96 10.07C16.47 10.58 16.76 11.27 16.76 12C16.76 12.73 16.48 13.42 15.96 13.93L9.43998 20.45C9.28998 20.59 9.09998 20.67 8.90998 20.67Z" fill="#292D32"/>
<path d="M18.5323 15.2916C18.5586 15.467 18.5019 15.6549 18.3446 15.8201L13.0923 21.3378C12.7883 21.6572 12.2187 21.7426 11.8343 21.5264C11.45 21.3102 11.3836 20.867 11.6876 20.5476L16.9399 15.0299C17.2439 14.7105 17.8136 14.6251 18.1979 14.8413C18.3967 14.9531 18.506 15.1161 18.5323 15.2916Z" fill="#292D32"/>
</svg>
