<svg width="24" height="24" viewBox="0 0 24 24" fill="none" xmlns="http://www.w3.org/2000/svg">
<path d="M15 20.67C14.81 20.67 14.62 20.6 14.47 20.45L7.95003 13.93C6.89003 12.87 6.89003 11.13 7.95003 10.07L14.47 3.54999C14.76 3.25999 15.24 3.25999 15.53 3.54999C15.82 3.83999 15.82 4.31999 15.53 4.60999L9.01003 11.13C8.53003 11.61 8.53003 12.39 9.01003 12.87L15.53 19.39C15.82 19.68 15.82 20.16 15.53 20.45C15.38 20.59 15.19 20.67 15 20.67Z" fill="#292D32"/>
<path d="M11.656 21.4736C11.4798 21.4936 11.294 21.43 11.1346 21.2669L5.8109 15.8182C5.50274 15.5028 5.43803 14.9304 5.66801 14.5541C5.89799 14.1779 6.34334 14.1276 6.6515 14.443L11.9753 19.8917C12.2834 20.2071 12.3481 20.7795 12.1181 21.1557C11.9992 21.3503 11.8323 21.4537 11.656 21.4736Z" fill="#292D32"/>
</svg>
