<svg width="24" height="24" viewBox="0 0 24 24" fill="none" xmlns="http://www.w3.org/2000/svg">
<path d="M16.68 20.83C16.67 20.83 16.65 20.83 16.64 20.83H5.55C2.61 20.62 1.29 18.36 1.29 16.34C1.29 14.54 2.34 12.54 4.63 11.99C3.99 9.49002 4.53 7.14002 6.16 5.44002C8.01 3.50002 10.98 2.73002 13.53 3.52002C15.87 4.24002 17.52 6.17002 18.12 8.85002C20.17 9.31002 21.8 10.86 22.46 13C23.17 15.33 22.53 17.72 20.78 19.25C19.66 20.26 18.2 20.83 16.68 20.83ZM5.57 13.35C5.56 13.35 5.56 13.35 5.55 13.35C3.65 13.49 2.78 14.95 2.78 16.34C2.78 17.73 3.65 19.19 5.59 19.33H16.63C17.79 19.31 18.9 18.91 19.76 18.13C21.32 16.76 21.43 14.81 21.01 13.44C20.59 12.06 19.42 10.5 17.38 10.24C17.05 10.2 16.79 9.95002 16.73 9.62002C16.33 7.22002 15.03 5.56002 13.08 4.96002C11.05 4.34002 8.71 4.95002 7.24 6.48002C5.91 7.87002 5.53 9.79002 6.15 11.9C6.66 11.97 7.15 12.12 7.6 12.35C7.97 12.54 8.12 12.99 7.93 13.36C7.74 13.73 7.29 13.88 6.92 13.69C6.51 13.48 6.06 13.37 5.61 13.37C5.6 13.35 5.59 13.35 5.57 13.35Z" fill="#292D32"/>
<path d="M15.85 10.67C15.57 10.67 15.31 10.52 15.18 10.25C14.99 9.87998 15.15 9.42998 15.52 9.23998C16.14 8.92998 16.83 8.75998 17.51 8.74998C17.91 8.73998 18.27 9.06998 18.27 9.48998C18.28 9.89998 17.95 10.25 17.53 10.25C17.07 10.26 16.6 10.37 16.18 10.58C16.07 10.64 15.96 10.67 15.85 10.67Z" fill="#292D32"/>
</svg>
