<svg width="24" height="24" viewBox="0 0 24 24" fill="none" xmlns="http://www.w3.org/2000/svg">
<path d="M15 22.75H9C3.57 22.75 1.25 20.43 1.25 15V9C1.25 3.57 3.57 1.25 9 1.25H15C20.43 1.25 22.75 3.57 22.75 9V15C22.75 20.43 20.43 22.75 15 22.75ZM9 2.75C4.39 2.75 2.75 4.39 2.75 9V15C2.75 19.61 4.39 21.25 9 21.25H15C19.61 21.25 21.25 19.61 21.25 15V9C21.25 4.39 19.61 2.75 15 2.75H9Z" fill="#292D32"/>
<path fill-rule="evenodd" clip-rule="evenodd" d="M17.3916 15.8072C17.559 16.0971 17.4596 16.4677 17.1697 16.6351C16.8799 16.8025 16.5092 16.7031 16.3418 16.4133L14.1437 12.6061L9.94659 12.6061L7.65055 16.3666C7.47612 16.6523 7.10311 16.7425 6.81742 16.568C6.53173 16.3936 6.44154 16.0206 6.61597 15.7349L11.5625 7.63346C11.5744 7.61385 11.5873 7.59517 11.6011 7.57742C11.6523 7.49207 11.7253 7.41816 11.8176 7.36487C12.1075 7.1975 12.4781 7.29683 12.6455 7.58672L17.3916 15.8072ZM10.6867 11.3939H13.4439L12.1039 9.07289L10.6867 11.3939Z" fill="#292D32"/>
</svg>
